<?xml version="1.0" encoding="utf-8"?>
<!-- Generator: Adobe Illustrator 17.0.0, SVG Export Plug-In . SVG Version: 6.00 Build 0)  -->
<!DOCTYPE svg PUBLIC "-//W3C//DTD SVG 1.1//EN" "http://www.w3.org/Graphics/SVG/1.1/DTD/svg11.dtd">
<svg version="1.1" id="图层_1" xmlns="http://www.w3.org/2000/svg" xmlns:xlink="http://www.w3.org/1999/xlink" x="0px" y="0px"
	 width="439.646px" height="120px" viewBox="364.589 0 439.646 120" enable-background="new 364.589 0 439.646 120"
	 xml:space="preserve">
<g>
	<path d="M398.874,99.191h103.207v17.458H374.358c-6.751,0-9.77-3.207-9.77-8.017c0-4.097,1.598-6.768,6.749-10.866l98.412-79.45
		H369.03V0.859h125.057c6.573,0,9.77,3.027,9.77,7.837c0,3.92-2.131,6.77-6.928,11.045L398.874,99.191z"/>
	<path d="M669.786,80.843c0,29.57-26.112,38.299-76.561,38.299c-30.199,0-56.134-4.275-66.792-6.769V93.847
		c14.211,3.028,41.567,7.659,66.792,7.659c37.304,0,52.58-5.344,52.58-20.663c0-16.389-12.256-18.705-46.718-18.705
		c-19.363,0-35.883,0.535-54.713,1.247c-14.743,0.535-17.586-6.056-15.987-16.744l7.46-45.782h126.478V18.85H555.032
		c-1.421,9.442-3.02,17.992-4.441,27.255c14.566-0.89,33.929-1.603,50.627-1.603C648.115,44.503,669.786,51.273,669.786,80.843z"/>
	<path d="M804.234,32.925l-39.79,41.506c12.612,13.538,27.178,28.679,39.79,42.218h-27.001L751.12,88.682
		c-1.954-2.138-4.086-4.098-7.283-4.098c-3.374,0-5.151,1.96-7.105,4.098l-26.468,27.967h-27.001l39.968-42.218l-39.968-41.506
		h27.001l26.29,27.077c3.02,3.206,5.508,4.097,7.283,4.097c1.777,0,4.263-0.891,7.283-4.097l25.935-27.077H804.234z"/>
</g>
</svg>
