<?xml version="1.0" encoding="iso-8859-1"?>
<!-- Generator: Adobe Illustrator 21.0.0, SVG Export Plug-In . SVG Version: 6.00 Build 0)  -->
<svg version="1.1" id="&#x56FE;&#x5C42;_1" xmlns="http://www.w3.org/2000/svg" xmlns:xlink="http://www.w3.org/1999/xlink" x="0px"
	 y="0px" viewBox="0 0 975 172.491" style="enable-background:new 0 0 975 172.491;" xml:space="preserve">
<g>
	<path style="fill:#040000;" d="M166.688,122.816c0,27.174-20.97,39.371-81.31,39.371c-34.664,0-65.262-5.35-81.952-9.843v-21.826
		c16.048,4.066,49.642,10.271,83.022,10.271c40.869,0,51.567-4.922,51.567-18.188c0-10.698-8.559-13.479-27.603-17.117
		L50.072,94.571c-27.389-5.35-47.93-12.196-47.93-38.301S19.26,17.112,84.094,17.112c30.17,0,59.699,3.638,76.389,7.061v22.253
		c-16.904-3.424-50.07-7.489-76.389-7.489c-47.288,0-53.279,5.991-53.279,16.904c0,11.34,9.629,13.908,27.603,17.118
		c19.472,3.638,39.371,7.275,58.843,10.698C149.356,89.435,166.688,97.781,166.688,122.816z"/>
	<path style="fill:#040000;" d="M271.1,26.955v132.236h-27.174V43.217l-48.572,8.987V29.951l54.563-11.982
		c3.637-0.856,7.703-0.856,10.699-0.856C267.034,17.112,271.1,19.466,271.1,26.955z"/>
	<path style="fill:#040000;" d="M392.417,8.767h24.393c-6.847,17.118-14.123,32.738-22.681,47.93h6.205v113.621h-23.109V81.09
		H354.33C369.95,57.339,382.575,33.588,392.417,8.767z M415.955,32.519h51.14V8.767h22.467v23.751h44.079
		c3.852,0,6.633,2.782,6.633,6.633v84.306h-50.712v46.86h-22.467v-46.86h-51.14V32.519z M438.208,105.27h28.886v-54.35h-28.886
		V105.27z M489.562,50.921v54.35h28.673v-54.35H489.562z"/>
	<path style="fill:#040000;" d="M644.26,144.641c-9.843-4.28-19.043-9.201-27.816-14.765l-13.053,10.913h-28.458
		c17.332-14.337,31.026-27.175,43.437-40.869h-27.175V35.728h51.354l3.852-7.275h-74.677V13.047H761.09v15.406h-90.511l-3.852,7.275
		h68.258c4.065,0,6.633,2.782,6.633,6.847v57.345H645.33c-2.14,2.781-4.493,5.35-6.848,7.917h98.215
		c2.995,0,5.135,1.284,5.777,3.424c0.855,2.354,0,5.135-2.141,7.274c-10.484,10.057-24.179,19.258-40.654,26.533
		c20.755,4.707,42.58,7.917,65.476,10.271l-20.97,14.765c-24.179-2.996-48.571-7.917-71.895-15.192
		c-26.961,8.131-55.634,12.624-83.45,14.979l-20.97-14.337C591.194,153.414,618.797,150.205,644.26,144.641z M614.518,48.353V55.2
		h103.777v-6.847H614.518z M614.518,71.462h103.777v-7.062H614.518V71.462z M718.295,87.724v-7.062H614.518v7.062H718.295z
		 M620.937,125.597h20.97c9.415,4.279,19.258,8.345,29.101,11.555c13.48-4.493,25.035-9.843,33.808-15.834h-79.384L620.937,125.597z
		"/>
	<path style="fill:#040000;" d="M846.675,74.672h-20.327V38.938h-3.424c-3.852,11.983-8.986,23.751-14.978,34.236h-20.114
		c7.917-11.982,13.694-23.109,18.188-34.236h-15.192v-17.76h35.52V8.767h21.397v12.411h28.673v17.76h-28.673v2.568l26.104,10.057
		v17.974l-26.104-10.699v14.764h27.603l-8.131,9.842h82.808c5.777,0,8.56,4.922,4.922,10.271
		c-22.468,33.38-65.904,59.484-136.088,77.03l-27.389-14.55c29.314-5.991,53.708-13.694,73.821-21.826
		c-8.345-3.423-16.69-6.419-24.607-9.414l12.625-14.979c11.982,3.852,24.179,8.131,35.947,13.267
		c13.694-7.275,24.18-14.551,31.24-21.184h-70.825c-5.991,5.991-12.196,11.555-18.401,16.476h-31.026
		C819.929,103.13,837.688,85.798,846.675,74.672z M913.436,74.672V38.938h-4.066c-3.209,11.127-7.702,22.467-13.479,32.738h-19.9
		c7.062-11.555,12.197-22.253,16.263-32.738h-8.56v-17.76h29.743V8.767h21.183v12.411h36.162v17.76h-15.406
		c4.065,11.127,9.201,22.04,16.476,32.738h-20.327c-5.35-10.913-8.772-20.328-12.624-32.738h-4.28v35.734H913.436z"/>
</g>
</svg>
