<?xml version="1.0" encoding="utf-8"?>
<!-- Generator: Adobe Illustrator 23.0.1, SVG Export Plug-In . SVG Version: 6.00 Build 0)  -->
<svg version="1.1" xmlns="http://www.w3.org/2000/svg" xmlns:xlink="http://www.w3.org/1999/xlink" x="0px" y="0px"
	 viewBox="0 0 381.65 174.58" style="enable-background:new 0 0 381.65 174.58;" xml:space="preserve">
<style type="text/css">
	.st0{fill:#415FFF;}
	.st1{fill:#FFFFFF;}
</style>
<g id="图层_2">
</g>
<g id="图层_1">
	<g id="XMLID_96_">
		<path id="XMLID_101_" d="M246.45,61.13h-11.87c-12.33,0-13.43,10.08-13.43,13.16c0,3.08,1.1,13.16,13.43,13.16h11.87
			c12.33,0,13.43-10.08,13.43-13.16C259.88,71.2,258.78,61.13,246.45,61.13z M246.45,81.43h-11.87c-6.67,0-7.26-5.47-7.26-7.14
			c0-1.67,0.59-7.14,7.26-7.14h11.87c6.67,0,7.26,5.47,7.26,7.14C253.71,75.96,253.12,81.43,246.45,81.43z"/>
		<path id="XMLID_100_" d="M218.77,61.74h-3.85c-1.65,0-1.99,0.28-2.62,1.22c-0.64,0.94-11.64,17.74-11.64,17.74
			c-0.35,0.52-0.72,0.73-1.19,0.73s-0.84-0.21-1.19-0.73c0,0-11-16.79-11.64-17.74c-0.64-0.94-0.97-1.22-2.62-1.22h-3.85
			c-0.89,0-1.29,0.69-0.73,1.54c0.56,0.85,13.14,19.95,13.14,19.95c2.04,3,3.54,4.21,6.89,4.21c3.35,0,4.85-1.21,6.89-4.21
			c0,0,12.58-19.1,13.14-19.95C220.06,62.44,219.66,61.74,218.77,61.74z"/>
		<path id="XMLID_99_" d="M167.69,63.37c0-1.17,0.46-1.63,1.63-1.63h2.91c1.17,0,1.63,0.46,1.63,1.63v22.44
			c0,1.17-0.46,1.63-1.63,1.63h-2.91c-1.17,0-1.63-0.46-1.63-1.63V63.37z"/>
		<path id="XMLID_98_" d="M167.43,56.51c-0.95-0.95-0.95-1.7,0-2.65l2.02-2.02c0.95-0.95,1.7-0.95,2.65,0l2.02,2.02
			c0.95,0.95,0.95,1.7,0,2.65l-2.02,2.02c-0.95,0.95-1.7,0.95-2.65,0L167.43,56.51z"/>
		<path id="XMLID_97_" d="M161.36,61.74h-3.85c-1.65,0-1.99,0.28-2.62,1.22c-0.64,0.94-11.64,17.74-11.64,17.74
			c-0.35,0.52-0.72,0.73-1.19,0.73s-0.84-0.21-1.19-0.73c0,0-11-16.79-11.64-17.74c-0.64-0.94-0.97-1.22-2.62-1.22h-3.85
			c-0.99,0-1.29,0.69-0.73,1.54c0.56,0.85,13.14,19.95,13.14,19.95c2.04,3,3.54,4.21,6.89,4.21s4.85-1.21,6.89-4.21
			c0,0,12.58-19.1,13.14-19.95C162.65,62.44,162.35,61.74,161.36,61.74z"/>
	</g>
	<path id="XMLID_95_" d="M61.8,94.38C83.53,44.66,133.18,9.81,190.82,9.81s107.29,34.84,129.02,84.57h10.64
		C308.18,39.11,253.99,0,190.82,0S73.46,39.11,51.16,94.38H61.8z"/>
	<g>
		<path id="XMLID_93_" d="M243.97,170.84l-6.07-1.21c1.82-9.71,2.73-19.22,2.73-28.53h5.77
			C246.6,152.02,245.79,161.94,243.97,170.84z"/>
		<path id="XMLID_92_" d="M260.01,141.1h5.77c0,9.31,0.91,18.82,2.73,28.53l-6.07,1.21C260.61,161.94,259.81,152.02,260.01,141.1z"
			/>
		<path id="XMLID_90_" d="M45.95,127.42c1.47-2.15,3.02-5.89,4.67-11.23h9.18c1.62,0,2.43,0.82,2.43,2.47v6.22
			c0,1.69-0.77,2.54-2.31,2.54h-8.95l-0.04,6.94h12.18c1.69,0,3.17-0.64,4.44-1.93c1.26-1.26,1.9-3.06,1.9-5.39v-11.23
			c0-1.87-0.61-3.41-1.82-4.63c-1.29-1.26-3.02-1.9-5.2-1.9H34.87v6.91h7.97c-1.52,5.79-4.21,9.73-8.08,11.8l-0.04,7.25
			C39.47,134.09,43.21,131.49,45.95,127.42z"/>
		<path id="XMLID_89_" d="M306.72,138.04c-1.24-1.11-2.95-1.67-5.12-1.67h-31.64v7.02h9.41l-2.62,12.63
			c-0.3,1.47-0.58,2.62-0.83,3.45c-0.41,1.49-1.15,2.86-2.24,4.1c-0.86,0.99-1.99,1.76-3.38,2.31v7.28c3.87-1.21,6.72-2.9,8.54-5.05
			c2.23-2.61,3.79-6.08,4.7-10.43l3.04-14.3h12.63c1.09,0,1.83,0.28,2.24,0.83c0.28,0.35,0.42,1.18,0.42,2.47v16.77
			c0,1.04-0.16,1.73-0.49,2.09c-0.38,0.4-0.92,0.61-1.63,0.61l-6.3-0.04v7.02h8.35c2.66,0,4.57-0.78,5.73-2.35
			c0.91-1.24,1.37-3.16,1.37-5.77v-22.19C308.88,140.9,308.16,139.31,306.72,138.04z"/>
		<polygon id="XMLID_88_" points="256.98,108.9 249.96,108.9 249.96,129.13 239.6,129.13 239.6,136.14 249.96,136.14 249.96,173.29 
			256.98,173.29 256.98,136.14 266.46,136.14 266.46,129.13 256.98,129.13 		"/>
		<polygon id="XMLID_87_" points="31.64,135.46 31.64,128.37 21.06,128.37 21.06,120.13 31.45,120.13 31.45,113.11 21.06,113.11 
			21.06,108.33 14.08,108.33 14.08,113.11 5.02,113.11 5.02,120.13 14.08,120.13 14.08,128.37 1.88,128.37 1.88,135.46 
			14.08,135.46 14.08,158.58 31.64,158.58 31.64,151.56 21.06,151.56 21.06,135.46 		"/>
		<path id="XMLID_84_" d="M69.54,137.28H34.07v6.8h0.02c-0.01,0.14-0.02,0.27-0.02,0.41v11.46c0,2.05,0.63,3.72,1.9,5.01
			c1.47,1.49,3.57,2.24,6.3,2.24h19.08c5.46,0,8.19-2.54,8.19-7.63v-11.31c0-0.06-0.01-0.12-0.01-0.19h0.01V137.28z M62.45,153.44
			c0,1.75-0.73,2.62-2.2,2.62H43.9c-1.82,0-2.73-0.71-2.73-2.12v-9.52h21.28v2.58c0,0,0,0,0,0V153.44z"/>
		<path id="XMLID_83_" d="M94.31,167.53l7.28-13.4l-6.17-3.35l-7.13,13.13c0,0-1.08,2.06-4.45,2.06H21.06v-0.04h-6.98
			c-1.01-0.28-1.77-0.59-2.28-0.95c-0.78-0.51-1.49-1.43-2.12-2.77l-0.04-20.75H2.62v19.05c0,2.1-0.87,3.77-2.62,5.01v7.36
			c1.29-0.35,2.29-0.71,3-1.06c0.91-0.46,1.96-1.27,3.15-2.43c1.26,1.14,2.35,1.93,3.26,2.39c1.54,0.78,3.69,1.18,6.45,1.18
			l67.92,0.03C90.63,172.79,93.54,168.82,94.31,167.53z"/>
		<path id="XMLID_78_" d="M90.04,129.29v-0.02h-4.29l11.27-20.6h-8.35l-8.95,16.39c-1.67,3.06-2.5,5.27-2.5,6.64
			c0,1.34,0.43,2.45,1.29,3.34c0.86,0.86,2.19,1.29,3.98,1.29l4.06-0.04l-7.78,13.96c-0.04,0.08-0.08,0.15-0.12,0.23
			c-2.45,4.86,2.36,7.5,2.36,7.5l3.15,1.68h0l2.88,1.54l3.31-6.19L86.57,153c-0.56-0.39-0.28-1.17-0.21-1.32l0.62-1.1l6.45-11.44
			l0.01,0.01l1.47-2.6C97.08,129.04,90.04,129.29,90.04,129.29z"/>
		<path id="XMLID_77_" d="M308.86,134.86c-3.38,0-6.46-1-8.46-3.3c-3.54-4.07-3.9-9.56-4.09-11.14l-0.57-4.37
			c0-1.08-0.91-1.15-1.02-1.15l-18.69,0v-6.55h22.05c2.39,0,4.33,1.94,4.33,4.33l0.57,7.84c0.12,1.37,0.35,4.54,2.16,6.33
			c0.9,0.89,1.08,1.29,3.5,1.82c0.27,0.06,0.92,0.04,0.92,0.04l0.04,6.13l-0.41,0.01C309.08,134.86,308.97,134.86,308.86,134.86z"/>
		<path id="XMLID_76_" d="M270.03,134.69l0-6.68h0.48c1.82,0,3.46-0.51,4.19-1.29c1.5-1.62,1.64-3.74,1.59-4.86l0-4.96h6.62v5.62
			c-0.1,2.05-0.67,5.87-3.31,8.73c-1.99,2.15-5.38,3.43-9.09,3.43H270.03z"/>
		<polygon id="XMLID_75_" points="262.74,109.92 258.53,125.12 264.6,125.12 268.82,109.92 		"/>
		<polygon id="XMLID_74_" points="243.67,109.92 247.88,125.12 241.8,125.12 237.59,109.92 		"/>
		<path id="XMLID_147_" d="M218.26,109.87c-0.66,0-1.26,0.3-1.41,0.7l-16.58,43.18c-2.37,6.33-5.41,9.56-9.05,9.61
			c-3.64-0.05-6.69-3.28-9.05-9.61l-16.58-43.18c-0.15-0.4-0.76-0.7-1.41-0.7c0,0-9.82,0-9.82,0l19.28,51.84
			c1.29,3.47,3.61,6.23,6.86,8.19c2.78,1.65,6.29,2.49,10.42,2.49c0.11,0,0.21-0.01,0.31-0.01c0.1,0,0.2,0.01,0.31,0.01
			c4.13,0,7.64-0.84,10.42-2.49c3.26-1.96,5.57-4.72,6.86-8.19l19.28-51.84C228.08,109.87,218.26,109.87,218.26,109.87z"/>
		<path id="XMLID_69_" d="M136.41,159.38c5.18-5.87,9.13-13.27,11.84-22.18c0.68-2.63,0.45-4.56-0.68-5.77
			c-1.35-1.22-3.04-1.72-5.07-1.52h-4.73l4.06-14.59c0.9-4.45-1.58-6.78-7.44-6.99H100.9v7.29h5.75v10.33
			c0,16.29-2.02,30.1-6.04,41.45l0,0.02c0,0-0.81,2.42-1.69,4.43l7.39,2.42c1-1.8,1.92-3.7,2.76-5.71l5.02,5.71
			c6.31-3.04,11.84-6.08,16.57-9.12c3.6,3.04,7.78,6.18,12.51,9.42l6.09-6.08C144.53,165.87,140.25,162.83,136.41,159.38z
			 M109.12,168.45c2.94-7.02,4.94-15.3,5.98-24.87c2.93,5.67,6.2,10.74,9.81,15.19C120.43,162.6,115.17,165.83,109.12,168.45z
			 M119.17,131.73h-3.38c0-0.61,0.11-1.52,0.34-2.73v-13.37h12.51c2.03,0,2.93,0.91,2.71,2.73l-3.72,13.67
			c-0.45,2.84,0.68,4.36,3.38,4.56h5.07c1.8-0.2,2.37,0.61,1.69,2.43c-0.9,4.25-3.27,8.81-7.1,13.67
			C125.7,146.62,121.87,139.63,119.17,131.73z"/>
		<g>
			<path id="XMLID_2_" d="M350.32,135.19h-31.05v-7.02h53.28c2.18,0,3.88,0.56,5.12,1.67c1.44,1.26,2.16,2.86,2.16,4.78v22.19
				c0,2.6-0.46,4.53-1.37,5.77c-1.16,1.57-3.07,2.35-5.73,2.35h-8.35v-7.02l6.3,0.04c0.71,0,1.25-0.2,1.63-0.61
				c0.33-0.35,0.49-1.05,0.49-2.09v-16.77c0-1.29-0.14-2.11-0.42-2.47c-0.4-0.56-1.15-0.83-2.24-0.83h-12.63H350.32z"/>
			<g>
				<rect id="XMLID_1_" x="317.47" y="113.72" width="64.18" height="7.02"/>
				<g>
					<rect id="XMLID_3_" x="332.42" y="108.42" width="7.02" height="18.51"/>
					<rect id="XMLID_4_" x="359.68" y="108.42" width="7.02" height="18.51"/>
				</g>
			</g>
			<rect id="XMLID_5_" x="342.73" y="133.24" width="7.02" height="39.82"/>
		</g>
	</g>
</g>
</svg>
